<?xml version="1.0" encoding="utf-8"?>
<svg version="1.1" id="Layer_1" xmlns="http://www.w3.org/2000/svg" xmlns:xlink="http://www.w3.org/1999/xlink" x="0px" y="0px"
	 viewBox="0 0 16 16" enable-background="new 0 0 16 16" xml:space="preserve">
<g transform="matrix(.21225 0 0 .21252 50.69 -23.091)">
	<g transform="translate(12.17,-14.46)">
		<path fill="#9AA7B0" d="M-191.8,134.2c0,0,0,0.8,0,1.8v1.8l-7.2,0l-7.2,0h-7.3v4.3h13.9c3.7,0,6.9,0,7.2,0l0.6,0v1.8
			c0,1.4,0,1.8,0,1.8c0.1,0,8.1-5.7,8.1-5.7c0,0-1.8-1.3-4.1-2.9S-191.8,134.2-191.8,134.2L-191.8,134.2z"/>

        <circle cx="-212.8" cy="161.6" r="22" fill="none" stroke="#9AA7B0" stroke-linecap="round"
           stroke-linejoin="bevel" stroke-width="5"/>
		<g>
			<path fill="#9AA7B0" d="M-235.2,177.8c0,0,0,0.8,0,1.8v1.8l14.4,0h7.3v4.3h-13.9c-3.7,0-6.9,0-7.2,0l-0.6,0v1.8
				c0,1.4,0,1.8,0,1.8c-0.1,0-8.1-5.7-8.1-5.7c0,0,1.8-1.3,4.1-2.9C-237.1,179.1-235.2,177.8-235.2,177.8L-235.2,177.8z"/>
			<path fill="#9AA7B0" d="M-228.8,138.7c0,0-0.8,0-1.8,0h-1.8l0,7.2l0,7.2v7.3h-4.3v-13.9c0-3.7,0-6.9,0-7.2l0-0.6h-1.8
				c-1.4,0-1.8,0-1.8,0c0-0.1,5.7-8.1,5.7-8.1c0,0,1.3,1.8,2.9,4.1C-230.1,136.9-228.8,138.7-228.8,138.7L-228.8,138.7z"/>
			<path fill="#9AA7B0" d="M-196.9,182.4c0,0,0.8,0,1.8,0h1.8l0-7.2l0-7.2v-7.3h4.3v13.9c0,3.7,0,6.9,0,7.2l0,0.6h1.8
				c1.4,0,1.8,0,1.8,0c0,0.1-5.7,8.1-5.7,8.1c0,0-1.3-1.8-2.9-4.1C-195.6,184.3-196.9,182.5-196.9,182.4L-196.9,182.4z"/>
		</g>
	</g>
</g>
</svg>
