<?xml version="1.0" encoding="UTF-8"?>
<svg width="64" height="64" version="1.1" viewBox="0 0 16.933 16.933" xmlns="http://www.w3.org/2000/svg">
 <title>Apache Velocity logo</title>
 <g transform="matrix(.21225 0 0 .21252 50.69 -23.091)">
  <g transform="translate(12.17,-14.46)">
   <path d="m-182 127.9c-0.0126-8e-5 -0.0227 1.075-0.0227 2.388v2.388l-9.551-0.0155-9.55-0.016h-9.664v5.646h18.46c4.837 1e-4 9.135 9e-3 9.551 0.0202l0.7566 0.0202v2.367c0 1.917 7e-3 2.364 0.0393 2.352 0.1024-0.0393 10.78-7.551 10.77-7.578-6e-3 -0.0167-2.43-1.727-5.388-3.801s-5.388-3.771-5.401-3.771z"
         fill="#264d80" stroke-width=".03056"/>
   <circle cx="-211" cy="163" r="27.4" fill="none" stroke="#264d80" stroke-linecap="round"
           stroke-linejoin="bevel" stroke-width="6"/>
   <g fill="#264d80" stroke-width=".03056">
    <path d="m-240.2 182.9c0.0126-8e-5 0.0227 1.075 0.0227 2.388v2.388l19.1-0.0315h9.664v5.646h-18.46c-4.837 1e-4 -9.135 9e-3 -9.551 0.0202l-0.7566 0.0202v2.367c0 1.917-7e-3 2.364-0.0393 2.352-0.1024-0.0393-10.78-7.551-10.77-7.578 6e-3 -0.0167 2.43-1.727 5.388-3.801s5.388-3.771 5.401-3.771z"/>
    <path d="m-231 133.9c8e-5 0.0126-1.075 0.0227-2.388 0.0227h-2.388l0.0155 9.551 0.016 9.55v9.664h-5.646v-18.46c-1e-4 -4.837-9e-3 -9.135-0.0202-9.551l-0.0202-0.7566h-2.367c-1.917 0-2.364-7e-3 -2.352-0.0393 0.0393-0.1024 7.551-10.78 7.578-10.77 0.0167 6e-3 1.727 2.43 3.801 5.388s3.771 5.388 3.771 5.401z"/>
    <path d="m-191 192c-8e-5 -0.0126 1.075-0.0227 2.388-0.0227h2.388l-0.0155-9.551-0.016-9.55v-9.664h5.646v18.46c1e-4 4.837 9e-3 9.135 0.0202 9.551l0.0202 0.7566h2.367c1.917 0 2.364 7e-3 2.352 0.0393-0.0393 0.1024-7.551 10.78-7.578 10.77-0.0167-6e-3 -1.727-2.43-3.801-5.388s-3.771-5.388-3.771-5.401z"/>
   </g>
  </g>
 </g>
</svg>
